<?xml version="1.0" encoding="UTF-8"?>
<svg width="51px" height="62px" viewBox="0 0 51 62" version="1.1" xmlns="http://www.w3.org/2000/svg" xmlns:xlink="http://www.w3.org/1999/xlink">
    <!-- Generator: Sketch 46.2 (44496) - http://www.bohemiancoding.com/sketch -->
    <title>Group 2</title>
    <desc>Created with Sketch.</desc>
    <defs>
        <path d="M19.8745686,36.5652174 C22.6383891,36.5652174 24.7391304,34.9300834 24.7391304,32.9130435 C24.7391304,30.8960035 23.1039965,29.2608696 21.0869565,29.2608696 C19.0699166,29.2608696 18.7208375,30.8215788 17.5721098,32.9130435 C17.0431791,33.8760566 16.2173913,34.1304348 15,34.1304348 C16.2173913,35.3478261 17.5721098,36.5652174 19.8745686,36.5652174 Z" id="path-1"></path>
    </defs>
    <g id="portfolio-test" stroke="none" stroke-width="1" fill="none" fill-rule="evenodd">
        <g id="Desktop-Copy-10" transform="translate(-577.000000, -1768.000000)">
            <g id="Group-2" transform="translate(578.000000, 1769.000000)">
                <path d="M7,0 L8,0 L8,60 L7,60 L7,60 C3.13400675,60 4.73447626e-16,56.8659932 0,53 L0,7 L0,7 C-4.73447626e-16,3.13400675 3.13400675,7.10171439e-16 7,0 Z" id="Rectangle-11" stroke="#E84D4D"></path>
                <path d="M5,50 L50,50 C46.9387755,50 44.8979592,52 44.8979592,55 C44.8979592,58 47.9591837,60 50,60 L5,60 L5,60 C2.23857625,60 3.38176876e-16,57.7614237 0,55 L0,55 L0,55 C-3.38176876e-16,52.2385763 2.23857625,50 5,50 Z" id="Rectangle-11" stroke="#E84D4D" fill="#FFFFFF"></path>
                <polyline id="Line-2-Copy-3" stroke="#E84D4D" stroke-linecap="square" points="8 0 49.5 0 49.5 49"></polyline>
                <g id="Oval-7">
                    <use fill="#E84D4D" fill-rule="evenodd" xlink:href="#path-1"></use>
                    <path stroke="#E84D4D" stroke-width="1" d="M16.1471035,34.5271656 C17.3887971,35.6203449 18.3975049,36.0652174 19.8745686,36.0652174 C22.3609104,36.0652174 24.2391304,34.639475 24.2391304,32.9130435 C24.2391304,31.1721459 22.8278541,29.7608696 21.0869565,29.7608696 C20.0836217,29.7608696 19.5942802,30.1524004 18.9603876,31.3205153 C18.8569129,31.5111948 18.2327461,32.7488503 18.0103573,33.153749 C17.5861764,33.9260463 16.9972222,34.3488826 16.1471035,34.5271656 Z"></path>
                </g>
                <path d="M32.6690516,10.6889368 L32.6690516,10.6889368 L32.6690516,10.6889368 C33.3484927,10.6889368 33.9061461,11.226526 33.9310317,11.9055112 L34.6396215,31.2388666 L34.6396215,31.2388666 C34.6969343,32.8026032 33.4757364,34.1167234 31.9119998,34.1740361 C31.877423,34.1753034 31.8428259,34.1759372 31.8082259,34.1759372 L31.8082259,34.1759372 L31.8082259,34.1759372 C30.3537302,34.1759372 29.1746284,32.9968355 29.1746284,31.5423397 C29.1746284,31.4461775 29.1798953,31.3500874 29.1904053,31.2545013 L31.3186058,11.8990351 L31.3186058,11.8990351 C31.3943317,11.2103265 31.9761922,10.6889368 32.6690516,10.6889368 Z" id="Rectangle" stroke="#E84D4D" stroke-linecap="square" transform="translate(31.908094, 22.432437) rotate(-315.000000) translate(-31.908094, -22.432437) "></path>
                <path d="M25.9565217,26.2199954 L28.5389987,28.8024723" id="Line-3" stroke="#E84D4D" stroke-linecap="square"></path>
            </g>
        </g>
    </g>
</svg>